<?xml version="1.0" encoding="UTF-8"?>
<svg width="432px" height="457px" viewBox="0 0 432 457" version="1.1" xmlns="http://www.w3.org/2000/svg" xmlns:xlink="http://www.w3.org/1999/xlink">
    <title>File-01</title>
    <g id="Page-1" stroke="none" stroke-width="1" fill="none" fill-rule="evenodd">
        <g id="iPhone-15-Pro-Max" transform="translate(-308, -237)" fill="#F4F4F4" fill-rule="nonzero">
            <g id="File-01" transform="translate(524, 465.5) rotate(-7) translate(-524, -465.5)translate(332, 259)">
                <path d="M57.801382,145.989106 C56.7219175,146.798994 57.0457568,147.878846 57.0457568,148.742727 C56.9917836,158.623366 56.9378104,168.557999 57.0997301,178.438639 C57.1537033,183.135992 58.988793,187.617375 59.7983914,192.260736 C60.6079898,197.228052 61.4715614,202.249361 63.036785,207.000707 C64.8179014,212.453956 66.5450447,217.961198 69.0278131,223.144485 C71.4026351,228.111801 74.2092429,232.863147 77.0158506,237.5605 C78.4191545,239.936173 77.7175026,242.419831 75.1807609,243.391697 C73.0758051,244.201586 70.9708493,245.065467 68.7039738,245.443415 C66.9768305,245.76737 66.0592857,245.11946 65.6814731,243.499683 C65.4655802,242.581809 65.3036605,241.55595 65.3036605,240.638076 C65.3576337,237.452515 65.0877676,234.320946 64.8718747,231.189377 C64.709955,229.029674 63.6844637,228.057808 61.5795079,227.67986 C57.0457568,226.923964 52.5120058,227.301912 48.032228,227.949823 C46.1971383,228.219786 44.3080754,228.219786 42.4729857,228.219786 C40.4220031,228.219786 39.5044582,227.24792 39.5044582,225.250195 C39.5584314,221.79467 40.7458424,218.555116 41.4474944,215.26157 C42.1491463,212.022016 43.2825841,208.890447 44.1461557,205.650893 C45.0637005,202.087383 44.5239683,201.223502 41.123655,199.819695 C36.2660646,197.82197 31.0846349,196.580141 26.1730713,194.744394 C23.2045438,193.664543 20.3439628,192.260736 17.5913282,190.856929 C15.9721315,190.047041 15.9721315,188.265286 17.3754353,186.483531 C18.4009266,185.133717 19.5343644,183.837895 20.7217754,182.650059 C25.633339,177.736735 30.2750365,172.553449 35.7803056,168.288036 C38.0471811,166.560274 38.1551275,165.372437 36.4819575,162.942772 C29.1415987,152.630191 18.7787392,147.33892 6.68873649,144.963247 C4.69172711,144.585299 2.69471773,144.369329 0.967574484,143.073507 C-0.2198365,142.209626 -0.381756179,141.507723 0.859628031,140.427871 C3.72020904,137.890221 7.22846876,136.324436 10.1969962,133.894771 C16.0800779,129.089432 22.772758,125.309952 28.5478932,120.342636 C29.3574916,119.640733 30.16709,118.938829 31.0846349,118.452896 C33.5674033,117.26506 33.7832962,115.267335 32.8117781,113.161625 C31.1925813,109.436137 29.1415987,105.926621 26.7667768,102.687067 C23.5283832,98.259676 19.8582038,94.1562409 16.0800779,90.1607909 C14.4608811,88.4330287 12.8416843,86.7592591 11.0065946,85.3014598 C9.87315686,84.3835862 8.79369233,83.3577274 7.9301207,82.2238835 C5.71721842,79.4162699 6.41887036,77.2025747 9.92713008,77.0945895 C16.5118637,76.8786193 22.9886509,75.6367902 29.5194113,75.3128348 C37.1836095,74.9348868 44.9557541,75.2048497 52.5120058,73.5850727 C56.0202655,72.8291767 56.3441049,72.5052213 55.6964262,69.1036896 C53.6454436,58.683124 51.1087019,48.3705436 45.9812454,38.9218443 C45.0637005,37.1940822 43.4445037,35.1423646 45.0637005,33.3066173 C46.4670044,31.6868403 48.6799067,32.7666916 50.5689696,33.1446396 C58.8268733,34.8184092 66.7069644,37.5180376 74.2092429,41.1895322 C76.152279,42.1613984 77.9873687,43.4032274 79.8764316,44.4290862 C82.2512536,45.6709153 83.7625039,45.1849822 84.734022,42.7553166 C88.6200943,33.0366545 92.2902737,23.2639998 92.2363005,12.5194788 C92.2363005,8.79399167 93.4237115,5.17648965 94.3952296,1.55898763 C94.8809886,-0.16877453 96.176346,-0.492729935 97.5796499,0.749099117 C101.519695,4.36660114 104.812062,8.5780214 108.374295,12.5194788 C111.774609,16.3529511 114.851082,20.3484011 117.873583,24.4518362 C119.762646,27.0434795 121.921575,29.473145 123.594745,32.2807585 C125.537781,35.6822903 127.426844,35.8982606 129.963586,32.8746768 C133.309926,28.8252342 136.926132,24.9917619 140.758231,21.4282525 C143.834705,18.5666464 147.450911,16.3529511 150.743278,13.7073153 C155.331002,10.0358207 160.728325,7.71414032 165.585915,4.52857884 C166.8273,3.71869033 168.17663,2.90880182 169.633907,3.66469776 C171.199131,4.47458627 170.983238,6.14835587 170.983238,7.55216262 C170.983238,14.6791815 171.037211,21.860193 170.983238,28.9872119 C170.929265,36.2762085 172.980247,43.2412497 174.383551,50.3142761 C175.03123,53.6078227 176.758373,54.2557335 179.88882,53.1758821 C189.981814,49.5583801 200.020834,45.9948707 210.113827,42.3773687 C211.355211,41.9454281 212.704542,41.4055024 213.784007,42.4313612 C214.917444,43.5112126 213.891953,44.6450565 213.460167,45.7789004 C212.110837,49.6123727 209.250256,52.4739788 207.415166,56.0374882 C203.097308,64.3523436 198.347664,72.4512287 193.382127,80.3881362 C191.92485,82.655824 192.356636,83.897653 195.055297,84.3295936 C203.583067,85.7334003 212.110837,87.5151551 220.800526,88.1090733 C223.984946,88.3250436 227.007447,89.2429172 230.029948,90.1067983 C231.865037,90.5927314 232.24285,92.2125084 230.947493,93.4543375 C227.655126,96.6938915 224.794545,100.419379 221.016419,103.065015 C214.485659,107.654383 209.250256,113.647558 203.79896,119.37077 C202.12579,121.098532 202.341683,121.908421 204.608558,122.880287 C213.136328,126.443796 221.610124,130.061298 230.137894,133.6788 C230.299814,133.732793 230.461734,133.786785 230.56968,133.894771 C234.509726,135.838503 234.617672,137.512273 231.163386,140.157908 C226.359768,143.829403 220.854499,146.313061 215.457177,148.850712 C208.49463,152.144258 201.316191,154.897879 193.813913,156.895604 C192.626502,157.21956 191.385118,157.705493 191.115251,159.055307 C190.845385,160.297136 192.032796,160.783069 192.734448,161.538965 C197.915878,167.1002 204.986371,169.583858 211.193292,173.579308 C212.866462,174.659159 215.18731,175.577033 215.079364,177.84472 C214.971418,180.058416 212.542622,180.760319 210.869452,181.84017 C205.580076,185.349687 199.427128,186.753494 193.59802,188.913197 C190.683466,189.993048 190.143733,191.018907 190.899359,194.042491 C191.870877,198.091933 194.029806,201.709435 195.001324,205.704885 C195.972842,209.59235 195.001324,210.618209 191.061278,210.942164 C187.391099,211.212127 183.828866,211.806045 180.320606,212.939889 C177.837838,213.749778 177.406052,214.991607 178.755383,217.15131 C180.536499,219.958923 182.209669,222.766537 184.584491,225.196202 C187.013286,227.733853 186.527527,229.515608 183.23516,230.865422 C180.482526,232.053258 177.621945,233.025124 174.653417,233.511058 C170.767345,234.158968 168.122657,236.588634 165.909755,239.558225 C161.48395,245.497408 155.924708,249.870806 148.908188,252.354464 C145.291982,253.596293 145.130062,253.866256 145.184036,257.53775 C145.184036,258.617601 145.184036,259.64346 145.291982,260.723312 C145.453902,262.721037 146.479393,264.016858 148.530376,264.502791 C158.461449,266.824472 168.17663,270.010033 177.999757,272.817647 C179.241142,273.195595 180.536499,273.411565 181.831857,273.51955 C187.121233,273.951491 189.92784,277.191045 191.331144,281.942391 C193.544047,289.393365 195.756949,296.844339 197.753958,304.349306 C198.887396,308.560726 200.938379,312.502184 201.855924,316.821589 C203.63704,324.974467 206.389675,332.857382 208.65655,340.848282 C210.383693,346.949442 211.84097,353.050602 213.51414,359.151762 C214.593605,363.201205 215.079364,367.412625 216.698561,371.354082 C217.130347,372.379941 217.670079,373.027852 218.69557,373.18983 C221.232312,373.62177 223.661107,373.027852 226.143875,372.703897 C227.115394,372.595911 227.493206,371.51606 227.547179,370.598186 C227.924992,363.09322 231.379278,356.506126 234.617672,350.081011 C236.938521,345.383657 238.125932,340.200371 241.364325,335.934958 C243.145442,333.559285 245.62821,332.803389 248.003032,334.585144 C249.082497,335.395032 250.269908,335.395032 251.403345,335.718988 C255.883123,337.068802 260.68674,337.500743 265.058572,339.066527 C274.665806,342.522051 284.704826,341.982126 294.581927,342.846007 C295.823311,342.953992 298.14416,343.493918 298.090186,341.982126 C298.036213,340.092386 295.931257,341.334215 294.689873,341.280222 C291.235587,341.064252 287.673354,341.172237 284.327014,340.200371 C278.821745,338.688579 273.208529,337.986676 267.595313,337.122795 C265.328438,336.744847 263.169509,336.096936 261.226473,334.909099 C260.254955,334.315181 259.229463,333.721263 258.149999,333.4513 C249.460309,331.183612 242.227897,326.000326 235.049458,321.087002 C228.89651,316.875582 224.470705,310.666436 220.476687,304.349306 C218.155838,300.623819 217.34624,296.412399 216.158829,292.308964 C215.888962,291.283105 215.834989,290.149261 215.025391,289.393365 C214.485659,288.907432 213.784007,288.475491 213.028381,288.907432 C212.434676,289.231387 212.758515,289.933291 212.812489,290.473216 C213.082355,292.848889 214.323739,294.900607 215.133337,297.114302 C215.619096,298.410124 216.320748,299.759938 215.295257,301.001767 C214.215792,302.351581 212.542622,302.297589 211.247265,301.811655 C207.199273,300.353856 202.503602,299.867923 200.45262,295.224562 C198.239717,290.257246 197.052306,285.07396 197.915878,279.674703 C198.239717,277.568993 199.481102,275.571268 201.100298,274.059476 C204.986371,270.387981 205.094317,269.686078 202.395656,265.042717 C200.236727,261.371222 198.023824,257.645735 195.972842,253.866256 C193.4361,249.168902 193.813913,244.093601 194.947351,239.180277 C196.566547,232.215236 199.966861,225.844113 201.370165,218.771087 C201.80195,216.503399 201.100298,214.289704 201.262218,211.968023 C201.909897,204.139101 206.119808,198.037941 210.49164,191.936781 C214.215792,186.645509 218.533651,181.84017 222.743562,177.034832 C229.490216,169.475873 236.776601,162.402846 246.275889,157.813478 C260.578794,150.902429 275.529378,147.662875 291.28956,147.392912 C300.249115,147.230935 309.154698,147.662875 317.790414,150.308511 C322.594031,151.820303 327.235729,153.818028 331.44564,156.517656 C334.630061,158.515381 337.976401,160.027173 341.592607,160.999039 C344.129349,161.64695 346.342251,162.942772 348.285287,164.778519 C356.597164,172.715427 363.39779,181.948156 369.064979,191.828795 C372.681185,198.091933 376.783151,204.193093 378.834133,211.26612 C380.075517,215.47754 380.075517,219.796945 380.183464,224.062358 C380.345384,230.271504 381.047036,236.372664 381.96458,242.419831 C382.720206,247.171177 381.910607,251.760545 380.831143,256.349914 C379.859625,260.507341 379.157973,264.772754 378.564267,269.038167 C378.348374,270.495966 378.888106,271.899773 379.967571,273.033617 C386.930117,280.214628 384.447349,292.362956 375.811633,297.816205 C372.195426,300.083893 367.931542,301.379715 365.124934,304.835239 C363.289844,307.102927 361.292835,309.26263 359.619665,311.638303 C355.085914,318.063418 348.932966,322.814764 343.049884,327.836073 C340.621089,329.887791 340.13533,331.453575 342.078366,334.099211 C346.612117,340.254363 349.202832,347.32739 352.00944,354.346424 C353.196851,357.262022 352.387252,358.773814 350.33627,361.095495 C345.748545,366.332774 339.541624,369.518335 334.252248,373.783748 C333.44265,374.431659 332.633051,375.133562 331.931399,375.943451 C329.826444,378.319124 327.397648,378.319124 324.645014,377.239272 C318.438093,374.863599 313.148717,376.051436 309.424564,381.018752 C307.967287,382.962484 307.049742,385.39215 305.808358,387.71383 C304.83684,386.687972 304.890813,385.554128 304.83684,384.420284 C304.620947,380.802782 303.271616,379.344982 299.709383,379.344982 C290.479961,379.29099 281.196567,379.29099 271.967145,379.344982 C267.811206,379.398975 265.922143,381.342707 265.922143,385.60812 C265.86817,390.953384 265.922143,396.298649 265.86817,401.697905 C265.814197,405.261415 264.896652,406.341266 261.388392,406.773207 C259.121517,407.043169 256.908615,407.529103 254.911605,408.716939 C251.619238,410.714664 248.003032,410.336716 244.494772,409.850783 C241.850084,409.472835 240.230888,407.205147 238.719637,405.261415 C234.995485,400.564061 231.595171,395.596745 227.331286,391.439317 C224.578652,388.739689 221.448205,386.202038 219.01941,383.340432 C215.295257,378.967034 210.869452,379.344982 206.227755,379.344982 C200.398646,379.344982 194.569538,379.344982 188.686456,379.344982 C183.828866,379.398975 182.209669,380.910767 182.209669,385.770098 C182.155696,393.221072 182.209669,400.726039 182.209669,408.177013 C182.209669,410.066753 182.371589,412.118471 180.05074,412.820374 C177.675918,413.522278 176.002748,412.064478 175.085203,410.228731 C173.466006,407.097162 171.307077,404.397534 169.579934,401.37395 C166.449487,395.758723 161.268057,392.249206 156.30252,388.469726 C152.092609,385.230172 147.019125,383.826365 142.269481,381.882633 C137.843677,380.100878 132.986087,379.776923 128.290416,378.913042 C116.632199,376.807332 105.189875,378.427109 93.8554973,381.072745 C91.642595,381.61267 89.7535321,382.962484 87.4866566,383.448417 C85.5975936,383.880358 83.7625039,383.934351 82.0893339,382.854499 C75.9363861,378.805057 69.6215186,375.187555 63.7924101,370.598186 C58.6109804,366.548744 53.5374971,362.445309 48.517987,358.233888 C44.6319147,354.940342 40.8537889,351.53881 37.075663,348.137278 C35.7263324,346.895449 35.7803056,345.113695 36.4279843,343.871866 C39.5584314,337.770705 40.2600834,330.967642 42.3650392,324.596519 C45.6034328,314.661886 48.5719603,304.619269 51.1626751,294.522659 C52.2961129,290.041276 53.5374971,285.613885 54.8868278,281.186495 C55.6964262,278.378881 57.801382,276.651119 60.4460701,275.84123 C68.3261612,273.411565 75.9903593,270.172011 83.8704504,267.688353 C89.2677731,266.014583 94.7190689,264.448799 100.116392,262.667044 C102.59916,261.857155 104.650143,259.265512 104.812062,256.943832 C104.973982,254.082226 103.192865,252.732412 100.872017,251.706553 C94.9889351,249.168902 89.1598266,246.577259 84.0323701,242.581809 C80.5780836,239.936173 78.4731277,236.264679 76.3681719,232.701169 C71.0787957,223.630418 67.084777,214.073733 64.3861156,203.815145 C62.0112937,194.744394 59.9603111,185.727635 60.0142843,176.332929 C60.0142843,174.983114 59.7983914,173.579308 59.474552,172.229493 C57.6934355,165.21046 57.7474088,158.083441 58.4490607,150.956422 C58.5570072,149.282652 58.988793,147.500898 57.801382,145.989106 Z M286.27005,247.603118 C286.485943,242.149868 284.866746,237.12856 282.76179,232.269229 C281.952192,230.379489 280.764781,228.543741 279.145584,227.139935 C276.986655,225.304187 275.853217,225.520158 275.043619,228.219786 C273.856208,232.215236 271.0496,235.076842 267.595313,236.426656 C261.280446,238.910314 254.803659,240.962032 248.003032,241.879906 C242.551736,242.581809 237.046467,242.905764 231.541198,242.851772 C228.464724,242.851772 227.06142,244.147593 227.06142,247.063192 C227.115394,252.246478 227.817045,257.32178 231.109412,261.587193 C236.938521,269.09216 244.062987,274.221453 253.940087,275.139327 C263.277455,276.003208 271.373439,273.08761 278.066119,267.040442 C283.571388,262.073126 286.485943,255.270062 286.27005,247.603118 Z M300.357062,246.145318 C300.465008,247.981066 300.249115,249.978791 300.734875,251.706553 C302.785857,258.995549 307.049742,264.772754 313.418583,268.876189 C315.361619,270.118018 317.142735,271.84578 319.463584,272.439699 C327.505595,274.437424 335.331713,274.275446 342.995911,270.711937 C353.196851,265.960591 359.133906,258.293646 359.403772,246.739237 C359.511718,242.851772 358.918013,242.419831 355.085914,242.365839 C349.472698,242.311846 343.913456,242.743787 338.30024,242.041883 C332.740998,241.285987 327.343675,239.612218 322.216219,237.506508 C318.114253,235.832738 313.796395,233.996991 311.475547,229.461615 C309.964296,226.600009 308.830858,226.600009 306.833849,229.13766 C302.893804,234.050983 299.81733,239.45024 300.357062,246.145318 Z M114.959029,130.385254 C114.47327,127.1457 114.419297,122.556331 111.936528,119.046814 C108.428268,114.079498 103.138892,111.271885 97.2558106,109.868078 C93.1538454,108.896212 89.2677731,109.652108 85.2737543,111.487855 C78.6350474,114.565431 74.2092429,119.37077 71.7264744,126.173833 C70.4850902,129.629358 70.916876,132.976897 71.5645548,136.486414 C72.2122335,140.157908 73.9393767,141.399737 77.5555829,140.751827 C82.0353607,139.941938 86.4611653,139.186042 91.0488895,139.13205 C97.4717035,139.078057 103.840544,139.56399 110.047465,141.23776 C112.314341,141.831678 113.501752,141.129775 113.987511,138.862087 C114.47327,136.324436 115.066975,133.894771 114.959029,130.385254 Z M171.361051,135.78451 C172.008729,129.575365 167.151139,125.201967 162.509441,123.312227 C158.407476,121.584465 154.035645,120.180658 149.501894,119.748718 C144.806223,119.316777 140.164526,118.938829 135.468855,119.80271 C130.989077,120.612599 128.830148,122.826294 127.966576,127.1457 C127.534791,129.46738 128.128496,131.681075 128.128496,133.894771 C128.128496,136.594399 129.100014,137.566265 131.798676,137.67425 C135.846668,137.890221 139.89466,138.106191 143.942652,138.052198 C148.206536,137.998206 152.362475,138.700109 156.46444,139.456005 C159.756807,140.049923 163.15712,140.373879 166.071674,142.425596 C167.960737,143.77541 169.148148,143.019514 170.17364,140.751827 C170.929265,139.078057 171.630917,137.45828 171.361051,135.78451 Z M153.819752,272.439699 C153.495913,273.465557 153.873725,273.951491 154.143591,274.437424 C158.677342,282.320339 163.426986,289.987283 167.474978,298.194153 C172.386542,308.236771 177.082213,318.387374 181.130205,328.807939 C182.749401,332.965367 182.317616,336.852832 178.755383,339.876416 C173.897792,344.087836 169.633907,348.893174 164.99221,353.320565 C163.31904,354.886349 163.373013,356.452134 164.560424,358.287881 C165.855781,360.285606 167.636898,361.689413 169.525961,363.09322 C173.088194,365.84684 176.54248,368.816432 179.726901,372.055986 C180.698419,373.027852 182.101723,374.107703 183.23516,372.595911 C184.314625,371.138112 182.749401,370.382216 181.777883,369.572328 C180.05074,368.222513 177.729891,367.73658 176.326587,366.008818 C174.221632,363.52516 171.415024,361.581428 170.065693,358.449859 C169.8498,357.963926 169.364041,357.531985 168.932255,357.20803 C166.017701,354.886349 165.963728,354.670379 168.716362,352.078736 C172.926274,348.137278 177.244132,344.357799 181.346097,340.308356 C184.260652,337.44675 185.340116,333.991226 183.828866,329.833798 C182.695428,326.702229 180.968285,323.840623 179.942794,320.655061 C176.812346,311.314347 172.008729,302.729529 167.690871,293.928741 C165.639889,289.771313 163.265067,285.829855 160.836271,281.888398 C158.839262,278.648844 157.004172,275.19332 153.819752,272.439699 Z M305.160679,407.313132 C305.322599,408.716939 306.51001,409.634813 308.02126,409.256865 C310.773895,408.554961 312.069252,406.449251 312.716931,403.911601 C313.310636,401.697905 312.824877,399.754173 311.043761,398.242381 C308.830858,396.406634 306.725903,394.570886 305.646438,391.70928 C304.566974,396.892567 304.513,402.129846 305.160679,407.313132 Z" id="_x36_L17pX.tif"></path>
            </g>
        </g>
    </g>
</svg>